<?xml version="1.0" standalone="no"?>
<!DOCTYPE svg PUBLIC "-//W3C//DTD SVG 20010904//EN"
 "http://www.w3.org/TR/2001/REC-SVG-20010904/DTD/svg10.dtd">
<svg version="1.0" xmlns="http://www.w3.org/2000/svg"
 width="1588.000000pt" height="1191.000000pt" viewBox="0 0 1588.000000 1191.000000"
 preserveAspectRatio="xMidYMid meet">

<g transform="translate(0.000000,1191.000000) scale(0.100000,-0.100000)"
fill="#000000" stroke="none">
<path d="M7565 10704 c-391 -31 -782 -110 -1155 -234 -1088 -362 -1974 -1073
-2572 -2065 -429 -710 -668 -1572 -668 -2408 0 -753 178 -1500 516 -2169 371
-732 931 -1360 1629 -1825 564 -376 1204 -630 1870 -742 292 -49 391 -56 795
-55 359 0 398 2 580 27 581 79 1065 227 1561 478 1095 554 1933 1518 2333
2687 138 404 215 804 246 1287 58 904 -184 1884 -663 2680 -366 609 -850 1121
-1432 1514 -599 405 -1240 660 -1945 775 -256 42 -344 48 -695 51 -192 1 -372
1 -400 -1z m800 -89 c1114 -100 2085 -549 2871 -1330 352 -350 615 -709 834
-1140 261 -513 417 -1053 486 -1685 25 -219 25 -697 1 -910 -111 -972 -439
-1772 -1053 -2560 -439 -565 -1045 -1025 -1755 -1333 -803 -350 -1773 -464
-2639 -311 -821 145 -1580 501 -2209 1038 -137 116 -392 371 -511 510 -624
733 -1010 1656 -1095 2616 -19 223 -19 252 2 185 21 -69 40 -88 80 -82 25 5
35 1 43 -13 12 -22 12 -184 0 -295 -6 -57 -4 -107 6 -175 8 -52 23 -156 34
-231 20 -145 48 -245 82 -292 26 -36 37 -32 57 22 9 24 26 50 38 58 20 14 24
13 46 -9 56 -56 93 -208 107 -436 25 -422 92 -585 352 -850 82 -83 128 -115
159 -110 22 3 28 10 51 63 10 23 21 31 44 33 25 2 37 -4 66 -36 19 -21 43 -61
52 -88 32 -88 39 -95 140 -113 77 -14 173 -59 224 -106 23 -20 66 -69 97 -110
68 -88 107 -110 174 -101 25 4 72 10 104 13 l59 6 61 -61 c34 -33 72 -65 83
-71 12 -6 66 -15 121 -20 114 -10 163 -31 277 -114 118 -85 239 -127 367 -127
87 0 93 46 15 128 -67 72 -80 95 -66 122 17 32 51 33 161 5 57 -15 132 -34
167 -43 76 -19 96 -11 100 40 3 38 -10 53 -77 90 -43 24 -42 59 3 93 27 21 34
34 39 73 3 27 17 74 31 105 l25 57 46 0 c101 0 62 89 -97 218 -118 96 -113 94
-198 87 -101 -9 -127 -7 -158 9 -44 23 -97 86 -152 179 -96 164 -133 191 -332
241 -146 37 -198 59 -253 107 -84 74 -108 161 -98 357 7 149 -5 206 -63 284
-76 106 -177 153 -364 173 -140 15 -168 21 -223 45 l-39 18 125 7 c110 6 134
4 202 -14 171 -47 302 -130 406 -257 75 -93 97 -100 148 -50 20 20 41 36 47
36 5 0 37 -23 69 -51 110 -93 180 -111 260 -66 32 18 47 38 77 98 20 42 51 88
68 102 42 36 105 52 149 38 43 -13 51 -8 51 30 0 39 -36 74 -91 89 -24 7 -74
29 -110 50 -311 182 -466 448 -364 625 27 47 78 78 153 94 62 13 104 33 132
63 19 20 26 41 44 120 7 32 42 53 106 63 108 16 129 34 151 122 10 40 28 64
100 139 48 50 94 107 103 128 18 42 21 114 7 162 -11 38 6 80 53 135 18 22 51
74 72 116 50 98 58 184 22 252 -13 25 -35 54 -49 64 l-27 19 -46 -31 c-85 -59
-177 -91 -303 -106 -85 -11 -164 -55 -263 -149 -91 -87 -121 -102 -186 -94
-33 3 -39 21 -29 75 5 28 27 56 95 123 78 77 91 94 106 146 14 50 15 68 5 124
-19 103 -59 225 -81 245 -24 22 -25 57 -5 115 18 52 19 61 1 85 -11 15 -32 21
-96 26 -96 8 -120 24 -120 79 0 63 46 92 188 121 109 22 149 41 177 87 11 18
29 47 40 65 13 20 44 44 86 65 36 18 71 42 78 53 17 28 15 125 -4 179 -36 102
-146 240 -190 240 -32 0 -40 -15 -59 -110 -16 -87 -40 -132 -70 -138 -21 -4
-46 15 -46 35 0 31 -33 82 -60 93 -54 22 -95 -18 -126 -125 -14 -45 -52 -46
-102 -1 -46 42 -80 56 -133 56 -51 0 -88 -16 -173 -74 -38 -26 -96 -61 -129
-77 -80 -41 -107 -69 -107 -113 0 -47 25 -62 118 -71 115 -11 148 -57 66 -91
-59 -25 -179 -44 -271 -44 -86 0 -118 9 -141 42 -18 24 -37 23 -89 -8 -46 -27
-90 -85 -99 -133 -5 -24 -1 -32 20 -46 14 -10 26 -23 26 -31 0 -7 -25 -34 -55
-60 -69 -60 -81 -96 -60 -178 27 -101 22 -109 -78 -120 -31 -3 -75 -13 -97
-22 -53 -22 -122 -99 -166 -189 -34 -68 -36 -79 -33 -148 5 -91 31 -130 123
-187 97 -60 108 -74 100 -118 -4 -20 -20 -74 -36 -119 -30 -89 -36 -166 -16
-224 6 -19 53 -113 105 -210 76 -142 97 -192 111 -257 16 -77 15 -86 -2 -172
-10 -50 -24 -130 -31 -178 -7 -47 -18 -88 -23 -90 -33 -11 -79 -52 -95 -84
-16 -32 -17 -45 -8 -94 11 -56 53 -134 91 -169 12 -11 43 -20 82 -24 55 -5 63
-9 79 -36 19 -33 24 -59 10 -51 -19 12 -66 -17 -138 -84 -92 -86 -116 -90
-142 -27 -10 23 -31 77 -46 121 -15 43 -50 111 -77 151 -42 62 -48 77 -39 94
7 11 20 25 31 31 30 16 48 60 69 162 14 68 35 126 77 213 l59 120 -1 110 c0
89 -4 121 -22 167 -33 81 -56 108 -96 108 -38 0 -69 -26 -117 -101 -45 -71
-72 -69 -137 12 -51 62 -82 136 -82 193 0 82 -65 187 -125 202 -67 17 -126
-60 -165 -213 -8 -32 -16 -43 -30 -43 -28 0 -31 10 -41 125 -10 118 -29 176
-90 276 -40 67 -41 71 -35 132 20 196 21 181 -14 210 -40 34 -55 34 -90 -1
-52 -53 -73 -161 -90 -457 -5 -104 -18 -269 -28 -365 l-17 -175 -3 180 c-8
438 74 950 224 1410 283 862 815 1636 1516 2202 730 589 1623 950 2548 1028
212 17 600 18 795 0z"/>
<path d="M7679 10434 c-20 -25 15 -47 65 -41 44 6 61 19 53 41 -9 22 -100 22
-118 0z"/>
<path d="M6775 10262 c-16 -11 -36 -26 -43 -35 -11 -13 -10 -17 8 -27 32 -17
144 9 154 37 16 42 -63 59 -119 25z"/>
<path d="M9285 9966 c-38 -12 -95 -35 -125 -50 -101 -52 -118 -83 -81 -148 10
-18 21 -61 25 -96 6 -69 22 -105 58 -139 29 -27 99 -53 144 -53 39 0 142 -66
224 -145 30 -29 66 -58 78 -65 30 -15 67 -6 105 26 36 31 89 32 154 2 57 -25
152 -30 178 -8 14 11 16 24 10 66 -5 46 -3 57 20 92 l27 40 -16 63 c-21 80
-42 113 -110 172 -69 59 -75 91 -21 101 57 11 44 55 -28 92 -100 53 -232 69
-346 42 -44 -10 -57 -9 -114 10 -78 27 -94 27 -182 -2z"/>
<path d="M6194 9718 c-121 -64 -179 -102 -285 -190 -74 -60 -160 -125 -192
-145 -59 -37 -65 -47 -69 -118 l-3 -40 -75 -25 c-91 -31 -128 -55 -136 -87
-10 -38 12 -66 82 -107 75 -43 80 -60 29 -105 -51 -44 -103 -57 -174 -43 -130
27 -208 6 -237 -64 -18 -43 -5 -102 33 -152 22 -30 29 -33 57 -27 98 20 93 21
100 -24 8 -53 42 -73 80 -48 24 16 26 21 39 151 1 10 12 25 25 34 21 14 24 12
73 -42 43 -46 58 -56 84 -56 51 0 165 64 201 113 l30 42 77 -3 78 -3 17 32
c36 67 65 91 122 100 31 5 62 17 74 28 18 19 19 26 10 72 -10 47 -9 53 13 79
27 33 28 45 7 116 -13 45 -13 58 -2 80 7 15 20 30 28 34 79 36 75 30 72 106
-2 38 0 79 3 91 3 13 30 41 60 63 59 43 67 66 36 94 -11 10 -17 24 -14 32 7
20 -16 73 -38 84 -31 17 -51 10 -205 -72z"/>
<path d="M7322 9666 c-21 -25 -33 -50 -37 -83 -11 -83 -15 -93 -43 -106 -15
-6 -30 -16 -35 -22 -13 -18 2 -68 30 -98 32 -33 27 -47 -33 -89 -47 -33 -78
-35 -102 -6 -115 143 -162 147 -213 18 -33 -83 -61 -108 -135 -120 -82 -13
-110 -27 -124 -60 -15 -37 0 -67 46 -86 37 -16 41 -29 19 -58 -41 -55 -4 -59
145 -16 125 36 182 38 210 10 24 -24 25 -48 6 -95 -23 -55 -61 -71 -182 -78
-120 -8 -140 -15 -149 -56 -8 -38 -16 -44 -100 -76 -38 -14 -89 -37 -112 -51
-79 -46 -95 -123 -42 -205 l30 -48 -25 -38 c-40 -58 -35 -72 42 -130 96 -72
112 -81 160 -89 23 -4 42 -10 42 -14 0 -11 -27 -20 -56 -20 -39 0 -83 -28 -90
-56 -5 -17 2 -42 20 -77 14 -29 26 -67 26 -84 0 -84 39 -109 120 -74 27 11 60
21 75 21 61 0 120 -55 165 -155 15 -33 34 -66 43 -74 9 -7 74 -20 146 -29 151
-18 192 -11 238 40 93 104 81 98 185 98 113 0 178 17 268 71 59 36 82 45 163
63 39 9 68 44 90 104 9 28 29 65 44 82 23 28 31 31 72 28 l46 -3 -2 -92 c-2
-112 -19 -152 -78 -193 -46 -32 -55 -46 -55 -89 0 -47 34 -78 110 -102 79 -25
92 -36 140 -127 39 -75 48 -79 151 -81 128 -2 154 -26 169 -159 14 -128 31
-152 108 -152 46 0 62 15 92 85 26 62 43 75 96 75 67 0 75 -20 36 -94 -38 -71
-39 -82 -12 -91 37 -12 56 5 90 76 19 39 43 75 53 81 11 6 44 7 77 3 73 -8
112 10 140 65 37 72 75 47 134 -89 47 -110 51 -138 32 -204 -9 -30 -16 -68
-16 -84 0 -62 78 -140 130 -128 14 4 41 20 60 36 91 78 118 89 206 89 101 0
175 15 209 41 32 26 34 78 4 126 -12 19 -25 63 -30 103 -14 116 -49 164 -185
256 -166 112 -207 172 -184 270 11 46 11 56 -3 78 -9 14 -30 27 -49 31 -67 13
-67 13 -93 101 -15 46 -23 88 -20 94 9 15 54 12 103 -7 40 -15 47 -15 75 -1
18 9 53 19 80 22 57 7 122 38 141 69 12 18 12 32 3 76 l-11 53 34 31 c78 68
85 104 44 225 -33 99 -65 154 -132 224 -123 129 -215 108 -230 -54 -6 -67 -23
-85 -66 -68 -24 9 -26 14 -26 75 0 71 -17 117 -50 135 -28 15 -25 31 11 66 82
77 75 154 -14 154 -27 0 -56 -13 -117 -55 -109 -74 -132 -85 -183 -85 -36 0
-58 9 -118 48 -80 52 -127 72 -169 72 -50 0 -56 23 -21 83 17 30 31 64 31 75
0 24 -25 52 -46 52 -8 0 -48 -31 -90 -70 -41 -38 -86 -73 -100 -76 -37 -10
-71 10 -93 55 -27 51 -66 81 -107 81 -41 0 -64 -30 -64 -83 0 -67 22 -101 102
-155 66 -44 98 -82 98 -113 0 -6 -13 -24 -30 -39 -32 -30 -33 -56 -4 -129 8
-18 11 -37 8 -42 -9 -15 -57 -10 -104 12 -55 25 -76 20 -135 -31 -75 -64 -113
-66 -142 -5 -17 35 -17 38 1 68 42 71 49 90 39 106 -25 39 -57 51 -158 58 -91
6 -102 9 -127 34 -26 25 -28 34 -28 102 0 91 -10 102 -89 101 -38 -1 -76 -11
-116 -29 -48 -22 -74 -27 -135 -27 -129 0 -207 38 -276 134 -20 29 -49 65 -62
80 -21 23 -23 30 -12 43 17 20 85 20 141 -1 70 -26 153 -22 226 10 106 48 120
89 48 137 -32 22 -40 34 -42 61 -1 18 -3 42 -5 53 -3 18 3 20 69 23 85 3 102
16 83 62 -13 31 -54 60 -85 60 -9 0 -48 -13 -87 -30 -75 -32 -124 -38 -151
-17 -10 6 -36 41 -60 77 -51 79 -72 85 -115 36z"/>
<path d="M6485 9578 c-38 -34 -43 -84 -14 -153 l23 -56 -23 -67 c-28 -82 -20
-114 33 -132 50 -16 108 2 162 52 54 50 72 101 56 157 -12 38 -111 184 -142
208 -24 19 -67 15 -95 -9z"/>
<path d="M10433 9584 c-9 -23 8 -53 87 -147 68 -82 105 -108 129 -92 28 17 -9
100 -63 144 -10 8 -26 32 -37 52 -10 21 -28 43 -38 49 -29 15 -71 12 -78 -6z"/>
<path d="M8641 9473 c-30 -24 -19 -53 20 -53 33 0 48 23 32 48 -14 23 -28 25
-52 5z"/>
<path d="M10366 9419 c-54 -43 -14 -79 64 -56 50 14 64 42 34 64 -26 19 -68
16 -98 -8z"/>
<path d="M10735 9250 c-6 -10 30 -87 74 -157 28 -46 71 -61 71 -25 0 34 -61
142 -94 167 -36 28 -42 29 -51 15z"/>
<path d="M10461 9196 c-22 -26 -6 -48 31 -44 28 2 33 7 33 28 0 19 -6 26 -26
28 -14 2 -31 -4 -38 -12z"/>
<path d="M10619 9114 c-19 -23 1 -49 37 -49 41 0 47 40 9 55 -33 13 -30 13
-46 -6z"/>
<path d="M10499 8965 c-80 -58 -94 -65 -140 -65 -30 0 -73 11 -117 30 -80 34
-118 37 -205 14 -75 -19 -226 -81 -249 -102 -37 -32 -19 -81 39 -111 18 -9 36
-8 84 4 87 23 118 18 147 -25 21 -31 23 -42 18 -103 -9 -99 5 -139 70 -201 49
-48 54 -57 54 -97 0 -59 14 -104 47 -151 36 -52 92 -83 187 -104 88 -20 146
-59 146 -98 0 -26 -18 -46 -41 -46 -27 0 -69 -39 -69 -65 0 -27 13 -38 62 -54
48 -16 58 -33 45 -82 -7 -29 -6 -43 3 -54 19 -22 37 -18 67 15 14 17 33 30 41
30 8 0 34 -18 58 -40 53 -48 82 -56 154 -42 31 7 70 12 86 12 71 0 135 30 196
91 32 32 63 59 69 59 24 0 78 -30 97 -55 26 -33 29 -92 7 -180 -8 -33 -14 -70
-15 -81 0 -45 163 -206 238 -235 55 -21 95 40 95 146 1 64 -3 78 -46 162 -26
51 -44 99 -41 107 6 17 39 30 52 22 5 -3 17 0 27 8 13 9 16 20 10 44 -7 32
-27 53 -109 110 -54 37 -85 95 -86 157 0 68 -28 98 -134 149 -78 38 -103 56
-135 96 -61 77 -75 133 -67 260 8 137 -8 174 -104 238 -84 56 -132 103 -161
159 -25 48 -53 73 -81 73 -15 0 -18 -9 -18 -59 0 -50 -4 -62 -21 -75 -32 -22
-64 -2 -100 60 -33 58 -81 104 -108 104 -10 0 -33 -11 -52 -25z"/>
<path d="M4920 8681 c-21 -11 -54 -46 -81 -86 -54 -79 -67 -88 -125 -87 -34 1
-46 -3 -54 -19 -6 -10 -8 -24 -5 -29 8 -12 -12 -50 -26 -50 -6 0 -24 11 -41
25 -37 31 -62 32 -93 0 -18 -17 -25 -35 -25 -62 -1 -56 -31 -113 -83 -156 -43
-35 -47 -42 -47 -82 0 -33 -8 -55 -35 -95 -22 -32 -35 -64 -35 -84 0 -42 -16
-56 -62 -56 -31 0 -44 -7 -78 -42 -70 -73 -125 -188 -90 -188 6 0 30 18 54 40
52 48 76 50 110 8 50 -65 55 -68 96 -68 77 0 142 45 154 108 3 15 10 53 16 84
11 57 42 110 56 96 4 -4 -3 -40 -15 -80 -25 -85 -26 -108 -7 -108 15 0 36 49
36 82 0 30 54 78 87 78 68 0 98 54 112 201 6 58 15 119 21 135 19 51 62 85
166 134 115 54 174 100 174 136 0 20 -5 24 -32 24 -41 0 -105 18 -113 31 -4 5
10 28 30 50 35 39 36 42 19 60 -21 24 -40 24 -84 0z"/>
<path d="M4928 8174 c-29 -15 -58 -61 -58 -92 0 -59 98 -56 163 6 34 32 34 55
1 81 -31 24 -68 26 -106 5z"/>
<path d="M6361 8011 c-6 -11 -11 -28 -11 -38 0 -11 -16 -35 -36 -54 -37 -35
-74 -97 -74 -123 0 -8 12 -24 27 -36 24 -18 35 -20 90 -14 76 8 98 -4 133 -70
35 -64 65 -71 89 -20 17 38 13 62 -13 85 -14 12 -44 66 -67 121 -23 54 -51
113 -63 131 -26 38 -60 47 -75 18z"/>
<path d="M7810 7590 c-9 -16 -8 -25 1 -36 16 -19 58 -18 66 2 16 41 -46 73
-67 34z"/>
<path d="M4073 7535 c-13 -9 -50 -56 -84 -106 -34 -50 -103 -134 -154 -187
-94 -100 -135 -157 -135 -187 0 -10 16 -35 35 -56 43 -48 46 -83 8 -103 -117
-60 -139 -262 -41 -363 51 -53 67 -46 154 64 133 167 151 221 97 292 -16 19
-35 56 -45 81 -9 25 -23 63 -31 84 -23 62 10 141 57 134 17 -2 22 -13 28 -52
9 -63 20 -74 52 -52 19 12 32 38 52 104 14 48 42 123 61 166 40 89 52 158 33
181 -16 19 -59 19 -87 0z"/>
<path d="M11063 7514 c-10 -26 10 -69 34 -72 27 -4 41 35 23 67 -13 25 -48 28
-57 5z"/>
<path d="M6588 7483 c-25 -30 -38 -60 -38 -93 0 -24 6 -33 26 -41 35 -13 53
-6 93 35 40 42 37 77 -9 101 -38 19 -53 19 -72 -2z"/>
<path d="M7786 7418 c-23 -32 -21 -85 4 -98 52 -28 120 66 78 108 -20 20 -65
14 -82 -10z"/>
<path d="M7421 7410 c-77 -28 -119 -70 -106 -109 9 -29 77 -55 130 -48 59 6
75 20 51 46 -21 23 -10 33 49 41 34 4 40 9 43 32 7 56 -68 73 -167 38z"/>
<path d="M8225 7330 c-9 -29 8 -44 40 -36 20 5 26 12 23 29 -4 32 -54 37 -63
7z"/>
<path d="M10653 7290 c-23 -22 -46 -40 -51 -40 -5 0 -23 14 -40 30 -38 36 -71
38 -109 7 -15 -13 -63 -44 -105 -71 -85 -52 -113 -81 -123 -128 -15 -66 53
-76 164 -23 40 19 74 35 77 35 4 0 -4 -102 -12 -157 -3 -18 -20 -51 -39 -73
-40 -48 -44 -76 -14 -115 18 -21 22 -40 21 -90 -2 -99 11 -109 134 -110 88 -1
102 1 124 21 14 12 47 38 73 58 60 45 111 48 176 11 48 -28 91 -33 91 -11 0 8
-18 36 -40 61 -26 30 -40 56 -40 74 0 26 5 30 73 50 39 11 79 21 88 21 25 0
47 -32 55 -79 14 -88 84 -124 84 -44 -1 61 -25 161 -45 183 -14 16 -26 19 -56
14 -81 -13 -102 -1 -234 129 -113 112 -124 126 -135 175 -11 47 -51 112 -68
112 -4 0 -26 -18 -49 -40z"/>
<path d="M11073 7323 c-29 -11 -4 -113 37 -155 17 -16 39 -28 54 -28 24 0 26
4 26 40 0 86 -64 164 -117 143z"/>
<path d="M7117 7209 c-46 -24 -44 -41 7 -53 67 -17 119 20 81 58 -21 21 -41
20 -88 -5z"/>
<path d="M11308 7165 c-13 -30 2 -72 38 -106 13 -12 24 -28 24 -35 0 -17 15
-25 33 -18 24 9 40 60 33 105 -11 68 -21 79 -72 79 -37 0 -46 -4 -56 -25z"/>
<path d="M7494 7156 c-23 -7 -75 -34 -115 -59 -101 -63 -141 -78 -210 -80 -74
-2 -90 -16 -65 -58 20 -34 16 -54 -24 -104 -20 -25 -30 -49 -30 -72 0 -29 5
-35 38 -49 76 -32 87 -40 120 -84 104 -138 127 -146 202 -70 64 63 103 75 181
55 62 -16 82 -13 117 18 26 24 28 49 7 67 -8 7 -15 16 -15 20 0 11 72 36 149
51 86 17 126 51 126 107 0 26 -7 48 -20 62 -32 35 -209 158 -260 181 -60 26
-147 33 -201 15z"/>
<path d="M8004 7125 c-9 -22 4 -35 36 -35 34 0 47 15 30 35 -16 19 -59 19 -66
0z"/>
<path d="M6947 7064 c-12 -13 -8 -52 7 -57 8 -3 24 -3 36 0 32 8 24 57 -10 61
-14 2 -29 0 -33 -4z"/>
<path d="M8020 6749 c-17 -30 8 -54 45 -45 21 5 26 12 23 34 -4 36 -51 44 -68
11z"/>
<path d="M10812 6540 c-27 -16 -33 -26 -30 -48 3 -24 7 -27 40 -26 40 1 85 25
95 50 14 38 -57 54 -105 24z"/>
<path d="M7060 6526 c-14 -8 -35 -31 -47 -53 -47 -83 -105 -117 -265 -153 -54
-12 -112 -31 -130 -43 -78 -53 -90 -138 -40 -283 18 -50 32 -101 32 -112 0
-31 25 -40 126 -47 112 -8 144 -18 179 -55 20 -21 29 -42 32 -77 6 -61 -11
-79 -121 -125 -48 -20 -87 -44 -99 -60 -28 -38 -32 -113 -12 -221 22 -117 14
-147 -60 -246 -48 -63 -56 -79 -53 -110 3 -33 6 -36 36 -39 25 -3 51 7 105 40
92 55 122 68 158 68 54 0 103 -30 195 -120 120 -118 162 -134 214 -82 19 19
32 47 40 86 16 79 55 116 157 150 128 43 183 101 183 195 0 42 -7 59 -43 113
-24 35 -65 94 -90 131 -68 99 -62 137 20 137 54 0 95 20 111 55 36 78 -9 211
-85 253 -64 35 -143 44 -295 32 -154 -11 -192 -5 -196 31 -3 22 3 27 36 37 22
7 49 12 60 12 29 0 62 38 62 72 0 16 9 46 20 68 27 53 25 75 -9 100 -34 24
-37 31 -50 125 -9 59 -15 74 -41 98 -17 15 -41 27 -54 27 -14 0 -30 2 -38 5
-7 2 -24 -2 -38 -9z"/>
<path d="M7850 6313 c-40 -16 -39 -56 1 -94 27 -25 30 -34 25 -62 -10 -51 -35
-68 -107 -74 -72 -6 -99 -23 -99 -63 0 -27 52 -110 70 -110 17 0 58 -84 70
-143 7 -33 18 -61 26 -64 8 -3 33 3 55 13 40 17 41 17 109 -6 57 -20 71 -22
84 -11 24 20 20 77 -8 114 -36 50 -37 52 -11 87 17 22 25 47 25 73 0 32 8 46
50 91 73 77 67 106 -23 106 -53 0 -99 28 -130 77 -13 21 -31 43 -38 50 -17 14
-79 24 -99 16z"/>
<path d="M6461 6016 c-28 -34 36 -84 67 -53 14 14 13 18 -2 41 -18 29 -47 34
-65 12z"/>
<path d="M8844 5562 c-85 -62 -86 -90 -2 -107 66 -13 83 -25 98 -70 25 -75 70
-45 70 46 0 67 -16 107 -56 138 -36 28 -64 26 -110 -7z"/>
<path d="M8496 5457 c-19 -14 -19 -44 0 -159 5 -31 3 -39 -19 -53 -24 -15 -28
-14 -81 11 -55 28 -55 28 -77 8 -30 -27 -22 -95 17 -135 42 -44 89 -55 155
-35 114 34 179 94 179 165 0 46 -38 126 -83 174 -37 39 -61 46 -91 24z"/>
<path d="M5901 5321 c-28 -28 -28 -71 -1 -71 27 0 72 45 68 68 -5 25 -43 27
-67 3z"/>
<path d="M9074 5176 c-22 -34 -14 -67 19 -86 27 -14 29 -14 53 13 41 48 27 97
-28 97 -18 0 -33 -8 -44 -24z"/>
<path d="M6356 4948 c-9 -12 -16 -34 -16 -48 0 -54 55 -91 88 -58 15 15 16 82
2 109 -14 26 -55 24 -74 -3z"/>
<path d="M7568 4930 c-12 -7 -18 -23 -18 -45 0 -27 -7 -39 -35 -61 -43 -32
-53 -65 -31 -99 14 -21 24 -25 69 -25 90 0 132 -49 121 -143 -5 -39 -3 -56 7
-63 25 -19 279 -94 322 -95 63 -1 92 -12 95 -35 2 -14 -5 -24 -22 -32 -34 -15
-41 -52 -26 -121 15 -66 15 -65 -2 -69 -7 -1 -20 15 -29 37 -19 44 -77 91
-145 117 -96 37 -82 -38 31 -166 107 -120 110 -150 19 -182 -66 -23 -116 -22
-145 1 -23 19 -24 24 -21 136 3 102 0 122 -18 160 -27 55 -72 79 -121 64 -19
-5 -74 -12 -123 -15 -72 -3 -98 -9 -132 -29 -23 -14 -49 -25 -58 -25 -20 0
-76 49 -76 67 0 25 -56 73 -85 73 -45 0 -115 22 -115 36 0 18 32 34 72 34 37
1 63 17 90 57 37 57 15 140 -61 225 -128 144 -401 161 -401 25 0 -41 21 -62
108 -107 77 -41 82 -62 17 -90 -54 -23 -61 -38 -47 -99 12 -52 4 -68 -26 -52
-23 12 -35 2 -26 -22 8 -23 51 -38 138 -48 45 -5 82 -9 83 -9 1 0 18 -14 38
-31 41 -36 45 -65 17 -131 -41 -95 -36 -158 19 -272 61 -125 191 -236 259
-221 24 5 36 0 72 -33 57 -52 98 -72 148 -72 59 0 62 22 11 74 -51 52 -52 66
-3 66 55 0 65 15 40 59 -16 30 -18 41 -9 64 16 41 41 31 74 -30 15 -29 50 -76
76 -105 62 -68 71 -87 71 -143 0 -25 7 -59 15 -74 20 -40 74 -83 99 -79 19 3
22 11 26 74 5 76 16 96 63 121 59 30 133 1 167 -66 14 -29 28 -41 50 -46 34
-8 70 -48 47 -53 -8 -2 -38 7 -68 19 -103 41 -137 49 -169 38 -22 -8 -30 -17
-30 -35 0 -30 43 -53 177 -93 183 -54 521 -99 538 -71 13 21 -18 40 -126 76
-57 20 -108 39 -113 45 -23 22 13 20 151 -9 186 -40 241 -46 276 -33 28 11 36
29 15 35 -7 2 -32 9 -55 15 -49 13 -69 41 -53 71 7 13 21 20 40 20 38 0 45 14
30 61 -16 48 -9 64 63 144 51 58 99 90 122 82 7 -3 15 -22 19 -41 4 -20 11
-36 16 -36 11 0 12 12 10 86 -1 41 3 57 23 79 23 28 24 28 51 10 26 -17 28
-17 44 -1 12 11 17 33 17 70 0 48 -4 57 -38 96 -55 60 -70 102 -62 167 8 63
-3 83 -47 83 -38 0 -62 -13 -123 -68 -116 -104 -175 -91 -175 38 0 41 -21 54
-65 40 -45 -15 -55 -7 -79 64 -18 53 -18 58 -2 110 16 50 16 60 2 115 -21 81
-45 127 -102 190 -42 46 -51 52 -82 49 -29 -2 -41 -11 -66 -47 -52 -74 -75
-86 -174 -89 -94 -3 -154 16 -160 51 -3 15 5 17 70 17 95 0 117 13 98 59 -30
74 -88 91 -208 61 l-87 -21 -105 26 c-121 30 -237 41 -262 25z"/>
<path d="M6591 4740 c-13 -11 -34 -20 -47 -20 -34 0 -31 -30 6 -65 16 -15 41
-58 55 -94 24 -65 73 -131 95 -131 14 0 40 61 40 93 0 28 -29 57 -57 57 -25 0
-73 37 -73 56 0 8 10 28 21 44 21 28 21 30 5 54 -19 31 -15 30 -45 6z"/>
<path d="M6300 4610 c-19 -10 -64 -44 -100 -74 -77 -66 -169 -116 -266 -145
-74 -22 -114 -53 -114 -88 0 -29 23 -45 132 -97 131 -63 159 -102 111 -157 -7
-9 -13 -22 -11 -30 7 -31 -33 -17 -78 27 -85 83 -126 99 -183 69 -33 -17 -41
-33 -41 -84 0 -61 44 -110 122 -136 79 -27 123 -66 158 -142 17 -37 37 -79 43
-92 18 -36 106 -130 138 -146 36 -19 95 -19 149 0 23 8 55 15 69 15 42 0 115
-53 168 -122 139 -182 223 -236 351 -224 222 19 205 20 260 -8 l52 -26 21 21
c13 13 18 27 14 37 -4 9 -9 38 -12 64 -5 45 -4 48 28 67 71 43 141 36 160 -16
6 -17 2 -30 -17 -53 -26 -30 -26 -56 -1 -66 20 -7 152 73 192 117 45 50 48
102 10 148 -31 37 -83 56 -202 76 -50 8 -107 22 -127 30 -45 19 -99 66 -126
111 -21 32 -24 34 -80 34 -35 0 -91 -10 -140 -26 -45 -14 -93 -24 -108 -22
-24 3 -27 8 -34 53 -4 28 -12 72 -18 99 -11 54 -5 66 38 66 19 0 22 5 22 40 0
49 16 88 64 159 48 71 48 108 1 150 -33 29 -40 31 -108 29 -84 -3 -108 8 -142
62 -13 21 -34 41 -46 45 -12 4 -57 2 -100 -5 -85 -13 -89 -14 -89 -3 -1 4 27
13 61 20 62 12 99 35 99 59 0 24 -64 87 -139 136 -83 54 -122 60 -181 28z"/>
<path d="M9402 4314 c-28 -19 -28 -45 -1 -70 15 -14 24 -16 37 -8 21 13 28 60
11 80 -15 18 -19 18 -47 -2z"/>
<path d="M9272 4168 c-7 -7 -12 -21 -12 -32 0 -50 78 -132 102 -108 14 14 11
121 -4 139 -13 16 -70 17 -86 1z"/>
<path d="M9549 4137 c-46 -31 -45 -52 3 -51 46 1 88 28 88 54 0 28 -47 26 -91
-3z"/>
<path d="M9019 3651 c-37 -36 -44 -57 -39 -106 3 -33 20 -45 62 -45 77 0 130
67 108 136 -22 65 -75 71 -131 15z"/>
<path d="M10646 3456 c-81 -25 -71 -76 15 -76 39 0 55 5 81 28 59 54 7 80 -96
48z"/>
<path d="M9162 3388 c-35 -17 -23 -42 21 -46 41 -4 59 17 37 43 -14 17 -26 18
-58 3z"/>
<path d="M7985 3350 c-11 -4 -35 -24 -54 -44 -48 -50 -90 -56 -141 -22 -22 14
-46 26 -53 26 -20 0 -37 -21 -37 -47 0 -27 24 -44 103 -73 56 -21 64 -29 110
-100 20 -31 30 -36 87 -47 75 -13 90 -4 90 53 0 45 13 49 64 19 24 -14 75 -32
112 -40 103 -21 118 -54 58 -126 -59 -70 -61 -87 -20 -181 9 -21 16 -63 16
-95 0 -32 4 -64 8 -71 19 -29 152 -43 209 -21 36 13 43 25 43 77 l0 42 104 0
c124 0 156 9 156 44 0 40 -34 56 -120 56 -81 0 -123 15 -128 44 -4 17 1 18 55
12 158 -19 150 -19 163 4 23 42 9 73 -44 98 -45 21 -48 25 -43 55 2 18 11 47
18 64 10 25 10 36 2 44 -22 22 -44 -1 -82 -84 -22 -47 -51 -93 -66 -105 -36
-29 -113 -30 -146 -3 -24 19 -24 19 -5 52 l19 32 -38 32 c-21 17 -35 36 -32
42 4 6 24 13 46 17 118 19 68 91 -90 132 -65 17 -112 13 -138 -10 -25 -21 -57
-3 -90 51 -29 47 -75 84 -103 82 -7 0 -22 -4 -33 -9z"/>
<path d="M9776 3339 c-14 -20 -12 -49 3 -49 12 0 51 45 51 58 0 20 -38 13 -54
-9z"/>
<path d="M9940 3335 c0 -8 11 -22 24 -30 13 -9 29 -29 36 -45 10 -25 9 -35 -6
-66 -25 -49 -58 -72 -117 -80 -57 -8 -76 6 -102 71 -18 50 -40 58 -56 21 -9
-20 -6 -31 27 -80 21 -33 47 -59 60 -62 32 -8 160 14 211 36 48 21 68 49 78
107 6 38 3 47 -27 85 -43 56 -46 58 -90 58 -27 0 -38 -4 -38 -15z"/>
<path d="M10968 3226 c-56 -15 -78 -31 -78 -57 0 -48 92 -46 154 2 33 26 33
47 0 59 -14 6 -26 10 -27 9 -1 0 -23 -6 -49 -13z"/>
<path d="M7303 3153 c-47 -9 -47 -30 -3 -72 37 -35 40 -42 30 -61 -18 -33 -40
-35 -94 -8 -71 36 -85 39 -107 28 -31 -17 -23 -35 46 -109 38 -39 65 -77 65
-89 0 -27 -30 -46 -95 -62 -56 -13 -85 -34 -85 -61 0 -10 23 -39 51 -66 l51
-48 -6 -67 c-8 -83 4 -98 74 -98 68 0 98 -14 105 -47 12 -56 16 -58 126 -65
57 -3 146 -10 197 -13 89 -7 92 -7 92 14 0 13 -11 26 -31 36 -16 9 -28 22 -26
28 4 13 25 13 169 2 88 -7 98 -6 104 10 4 10 2 26 -4 36 -23 37 -15 50 26 43
61 -10 92 34 57 80 -20 27 -19 50 5 71 40 37 22 55 -72 74 -68 15 -86 31 -70
66 8 18 20 25 39 25 46 0 71 11 76 31 5 17 11 19 61 13 53 -6 56 -6 68 21 11
25 10 29 -12 47 -22 18 -34 19 -97 14 l-72 -7 -40 36 c-49 44 -73 41 -101 -14
-21 -42 -36 -51 -81 -51 -21 0 -43 13 -77 43 -26 24 -73 63 -104 86 -51 37
-58 46 -58 76 0 50 -28 65 -115 64 -38 -1 -80 -4 -92 -6z"/>
<path d="M10552 3093 c-7 -2 -17 -14 -23 -25 -22 -40 55 -80 89 -46 35 35 -17
91 -66 71z"/>
<path d="M9161 2762 c-11 -21 -30 -43 -43 -49 -31 -16 -99 -33 -108 -28 -13 8
-31 -22 -24 -39 4 -11 19 -16 49 -16 68 0 100 16 120 60 10 22 26 47 36 56 11
10 19 25 19 36 0 31 -29 20 -49 -20z"/>
<path d="M5137 2653 c-34 -33 45 -152 149 -224 47 -32 135 -69 164 -69 82 0
-106 235 -224 279 -60 22 -78 25 -89 14z"/>
<path d="M6384 2635 c-18 -13 -18 -14 0 -34 25 -27 76 -29 76 -2 0 34 -48 57
-76 36z"/>
<path d="M6633 2604 c-6 -17 20 -44 43 -44 15 0 25 25 18 45 -8 20 -53 19 -61
-1z"/>
<path d="M4978 2594 c-33 -32 31 -107 86 -102 67 7 31 92 -45 104 -19 3 -37 2
-41 -2z"/>
<path d="M8886 2587 c-25 -18 -15 -44 19 -53 31 -8 78 20 73 44 -4 22 -66 28
-92 9z"/>
<path d="M6457 2496 c-9 -24 22 -56 54 -56 37 0 48 24 24 50 -21 23 -70 27
-78 6z"/>
<path d="M8205 2460 c-24 -27 -10 -41 49 -47 51 -6 66 9 46 46 -15 28 -70 28
-95 1z"/>
<path d="M8515 2445 c-22 -8 -41 -15 -42 -15 -2 0 -3 -9 -3 -20 0 -18 7 -20
54 -20 61 0 88 19 69 48 -14 23 -30 24 -78 7z"/>
<path d="M8230 2255 c-9 -25 -12 -25 -74 -19 -60 6 -65 5 -80 -18 -24 -37 -46
-117 -34 -124 6 -4 33 -6 60 -5 31 0 69 -7 99 -20 l48 -21 45 26 c50 29 96 79
96 105 0 16 -118 101 -141 101 -5 0 -14 -11 -19 -25z"/>
<path d="M7928 2169 c-31 -18 -22 -41 15 -37 24 2 32 8 32 23 0 23 -22 29 -47
14z"/>
<path d="M9655 2143 c-22 -21 -18 -51 10 -78 32 -33 72 -33 87 0 10 21 8 30
-8 52 -26 34 -69 47 -89 26z"/>
<path d="M5797 2093 c-13 -12 -7 -40 13 -58 25 -22 70 -13 70 15 0 31 -62 64
-83 43z"/>
<path d="M6107 2069 c-21 -12 -16 -52 10 -81 21 -23 75 -33 102 -19 29 16 26
47 -8 82 -31 31 -71 37 -104 18z"/>
<path d="M8748 2038 c-80 -21 -123 -114 -79 -170 35 -44 120 -82 181 -82 76 1
210 65 225 108 13 38 -14 59 -93 75 -33 6 -79 25 -103 40 -54 36 -83 42 -131
29z"/>
<path d="M9580 1993 c-27 -9 -103 -17 -194 -20 -183 -7 -186 -9 -186 -113 0
-68 1 -70 25 -70 14 0 48 12 76 26 44 23 57 26 102 19 81 -12 113 -8 172 20
54 27 125 93 125 118 0 38 -44 45 -120 20z"/>
<path d="M8063 1883 c-22 -8 -14 -43 12 -55 28 -13 75 -2 82 18 10 30 -53 54
-94 37z"/>
<path d="M8602 1783 c-17 -34 9 -67 61 -77 38 -8 77 9 77 33 0 47 -117 84
-138 44z"/>
<path d="M7526 1775 c-21 -21 -20 -28 3 -49 41 -37 122 -1 95 42 -15 23 -77
28 -98 7z"/>
<path d="M8296 1729 c-14 -11 -26 -29 -26 -39 0 -47 102 -68 140 -30 16 16 18
24 9 44 -21 46 -80 58 -123 25z"/>
<path d="M7840 1587 c-28 -14 -39 -55 -18 -68 25 -16 108 15 108 40 -1 30 -54
47 -90 28z"/>
</g>
</svg>
